<svg xmlns="http://www.w3.org/2000/svg" xmlns:xlink="http://www.w3.org/1999/xlink" version="1.1" id="Layer_1" x="0px" y="0px" viewBox="0 0 511.999 511.999" style="enable-background:new 0 0 511.999 511.999;" xml:space="preserve">
<path style="fill:#000000;" d="M318.832,390.621c-5.517,0-11.349,1.284-16.867,3.709c-7.788,3.424-14.373,8.956-18.07,15.177  c-1.953,3.285-4.816,9.733-2.059,16.003c2.699,6.136,10.256,9.949,19.721,9.949c5.517,0,11.348-1.282,16.865-3.707  c7.788-3.428,14.374-8.958,18.07-15.179c1.952-3.287,4.815-9.734,2.057-16.002C335.849,394.433,328.294,390.621,318.832,390.621z"/>
<g style="opacity:0.1;">
	<path d="M294.892,425.51c-2.757-6.269,0.107-12.718,2.059-16.003c3.697-6.222,10.282-11.752,18.07-15.177   c3.305-1.454,6.724-2.488,10.12-3.09c-1.975-0.401-4.086-0.619-6.309-0.619c-5.517,0-11.349,1.284-16.867,3.709   c-7.788,3.424-14.373,8.956-18.07,15.177c-1.953,3.285-4.816,9.733-2.059,16.003c2.699,6.136,10.256,9.949,19.721,9.949   c2.213,0,4.475-0.216,6.748-0.619C301.873,433.534,296.957,430.207,294.892,425.51z" fill="#000000"/>
</g>
<path style="fill:#000000;" d="M147.666,429.271c-5.516,0-11.347,1.282-16.866,3.708c-7.287,3.206-13.427,8.141-17.293,13.899  c-4.065,6.058-5.073,12.196-2.835,17.284c2.698,6.136,10.254,9.949,19.718,9.949c5.517,0,11.35-1.284,16.869-3.71  c7.788-3.424,14.373-8.955,18.069-15.177c1.953-3.285,4.816-9.733,2.058-16.006C164.686,433.084,157.13,429.271,147.666,429.271z"/>
<g style="opacity:0.1;">
	<path d="M123.6,464.164c-2.238-5.088-1.231-11.226,2.835-17.284c3.865-5.758,10.006-10.694,17.293-13.899   c3.326-1.463,6.766-2.501,10.182-3.102c-1.955-0.392-4.045-0.607-6.243-0.607c-5.516,0-11.347,1.282-16.866,3.708   c-7.287,3.206-13.427,8.141-17.293,13.899c-4.065,6.058-5.073,12.196-2.835,17.284c2.698,6.136,10.254,9.949,19.718,9.949   c2.19,0,4.432-0.21,6.683-0.607C130.612,472.208,125.671,468.875,123.6,464.164z" fill="#000000"/>
</g>
<path style="fill:#6fd3ed;" d="M433.468,172.469c2.258-9.062,3.402-18.382,3.402-27.73c0-63.079-51.319-114.398-114.398-114.398  c-44.729,0-85.393,26.164-104.014,66.785c-8.491-2.781-17.321-4.191-26.273-4.191c-44.843,0-81.527,34.61-84.3,79.126  c-4.496-0.693-9.006-1.044-13.434-1.044c-48.515,0.002-87.984,39.473-87.984,87.987s39.469,87.984,87.984,87.984h81.428v-84.794  l168.117-37.922v122.716h73.55c48.515,0,87.985-39.469,87.985-87.984C505.533,216.212,475.33,180.1,433.468,172.469z"/>
<g style="opacity:0.1;">
	<path d="M26.678,259.005c0-45.1,34.114-82.364,77.892-87.388c-3.391-0.396-6.779-0.597-10.118-0.597   c-48.515,0-87.984,39.47-87.984,87.985s39.469,87.984,87.984,87.984h20.211C66.147,346.989,26.678,307.519,26.678,259.005z" fill="#000000"/>
</g>
<polygon style="fill:#000000;" points="180.192,315.473 339.686,279.498 339.686,229.665 180.192,265.642 "/>
<g style="opacity:0.1;">
	<polygon points="193.013,262.813 339.686,229.728 339.686,229.665 180.192,265.642 180.192,315.473 193.013,312.581  " fill="#000000"/>
</g>
<path d="M489.227,197.503c-12.64-14.713-29.472-25.155-48.057-29.953c1.439-7.513,2.167-15.154,2.167-22.81  c0-34.634-14.898-67.659-40.874-90.609c-3.347-2.955-8.456-2.64-11.412,0.706c-2.956,3.346-2.64,8.455,0.706,11.411  c22.504,19.882,35.411,48.491,35.411,78.491c0,9.094-1.184,18.161-3.518,26.952c-0.585,2.206-0.211,4.558,1.03,6.474  c1.242,1.914,3.237,3.215,5.49,3.581c38.046,6.166,65.661,38.657,65.661,77.258c0,43.165-35.118,78.283-78.284,78.283h-63.849  v-53.05v-40.734v-21.253c0-2.457-1.117-4.78-3.035-6.313c-1.919-1.535-4.429-2.115-6.827-1.573l-171.351,38.651  c-3.686,0.831-6.306,4.108-6.306,7.886v21.252v40.735v14.399H94.452c-43.165,0.001-78.283-35.118-78.283-78.282  c0-43.166,35.118-78.284,78.283-78.284c4.456,0,9.02,0.402,13.565,1.195c2.294,0.399,4.649-0.208,6.463-1.671  c1.813-1.461,2.907-3.634,3.003-5.961c1.657-40.175,34.47-71.647,74.702-71.647c8.358,0,16.6,1.388,24.496,4.127  c3.977,1.378,8.339-0.52,10.041-4.364c16.777-37.882,54.363-62.358,95.749-62.358c16.925,0,33.075,3.912,48.001,11.626  c3.961,2.044,8.842,0.497,10.893-3.471c2.049-3.967,0.496-8.843-3.471-10.893c-16.999-8.786-36.166-13.431-55.424-13.431  c-45.38,0-86.797,25.489-107.437,65.511c-7.453-1.938-15.11-2.917-22.849-2.917c-45.973,0-83.981,33.787-90.081,78.401  c-2.565-0.212-5.122-0.319-7.653-0.319C42.371,164.552,0,206.923,0,259.005s42.371,94.452,94.452,94.452h71.727v65.827  c-5.28-2.605-11.566-4.024-18.513-4.024c-7.444,0-15.226,1.692-22.508,4.895c-23.093,10.156-35.09,31.965-27.312,49.651  c5.043,11.472,17.21,18.32,32.544,18.32h0.001c7.444,0,15.23-1.692,22.511-4.896c10.553-4.641,19.244-12.044,24.473-20.845  c4.246-7.146,5.89-14.836,4.819-21.935c0.097-0.502,0.152-1.021,0.152-1.551v-93.526v-16.02l155.182-35.004v51.022v35.357  c-5.317-2.665-11.668-4.12-18.698-4.12c-7.445,0-15.228,1.693-22.509,4.896c-10.554,4.64-19.245,12.043-24.475,20.845  c-5.663,9.532-6.698,20.029-2.839,28.803c5.046,11.472,17.213,18.32,32.547,18.32h0.001c7.442,0,15.225-1.691,22.506-4.894  c10.553-4.644,19.245-12.048,24.474-20.848c4.142-6.972,5.796-14.458,4.882-21.41c0.176-0.663,0.279-1.356,0.279-2.075v-46.79  h63.849c52.081,0,94.453-42.371,94.453-94.452C512,236.439,503.913,214.598,489.227,197.503z M163.476,454.124  c-3.472,5.843-9.698,11.057-17.082,14.305c-5.246,2.308-10.78,3.527-16.002,3.527c-8.597,0-15.396-3.318-17.744-8.66  c-3.99-9.074,4.72-22.053,19.021-28.342c5.245-2.307,10.777-3.526,15.998-3.526c8.596,0,15.397,3.319,17.748,8.661  C167.783,445.475,165.216,451.194,163.476,454.124z M182.347,312.778v-30.624v-14.788L337.53,232.36v11.143v34.27L182.347,312.778z   M334.638,415.473c-3.472,5.842-9.699,11.057-17.085,14.306c-5.245,2.307-10.777,3.526-15.997,3.526  c-8.597,0-15.398-3.319-17.748-8.661c-2.368-5.385,0.198-11.106,1.939-14.035c3.472-5.843,9.698-11.057,17.084-14.305  c5.246-2.308,10.779-3.527,16-3.527c8.595,0,15.393,3.319,17.743,8.662C338.944,406.824,336.378,412.543,334.638,415.473z" fill="#000000"/>
<path d="M354.166,70.127c-4.112-1.739-8.856,0.183-10.595,4.295c-1.74,4.112,0.184,8.856,4.295,10.595  c23.678,10.015,38.977,33.097,38.977,58.803c0,4.466,3.618,8.084,8.084,8.084s8.084-3.618,8.084-8.084  C403.013,111.605,383.839,82.678,354.166,70.127z" fill="#000000"/>
<g>
</g>
<g>
</g>
<g>
</g>
<g>
</g>
<g>
</g>
<g>
</g>
<g>
</g>
<g>
</g>
<g>
</g>
<g>
</g>
<g>
</g>
<g>
</g>
<g>
</g>
<g>
</g>
<g>
</g>
</svg>